<svg width="35" height="26" viewBox="0 0 35 26" fill="none" xmlns="http://www.w3.org/2000/svg">
<path d="M21.0515 6.36549V14.49C24.6065 16.1407 27.4041 14.4879 27.4041 10.1273C27.4041 5.65379 25.7662 3.66808 20.9371 2.07315C19.0385 1.45713 15.071 0.433333 12.5779 0V24.2583L18.7837 26V5.65448C18.7837 4.70089 19.226 4.06423 19.939 4.28411C20.8696 4.53353 21.0514 5.41121 21.0514 6.36549H21.0515ZM32.3781 17.0454C29.9914 16.1745 26.9503 15.8754 24.4677 16.1393C21.9837 16.4039 20.2184 17.0047 20.2184 17.0047L19.8661 17.1191V20.4166L25.9767 18.3454C27.019 17.9858 28.5482 17.9086 29.3928 18.1753C30.2376 18.442 30.0787 18.949 29.0378 19.3079L19.8661 22.4531V25.63L32.3293 21.3218C32.3293 21.3218 34.0045 20.7299 34.6888 19.8998C35.3718 19.0689 35.0683 17.8638 32.3781 17.0454ZM0.656438 18.9153C-0.602028 19.8136 -0.105496 21.2566 2.61942 22.1211C5.58165 23.0608 8.42239 23.6325 11.1275 23.1725C11.303 23.1424 11.4951 23.1104 11.6664 23.0789V20.1243L9.15239 20.8423C8.11159 21.2027 6.58099 21.2778 5.73624 21.0118C4.89158 20.7451 5.05057 20.2381 6.09146 19.8792L11.6664 18.0473V14.7452L3.79919 17.4607C3.79919 17.4607 1.82043 18.0849 0.656438 18.9152V18.9153Z" fill="#003887"/>
</svg>
