<svg width="188" height="144" viewBox="0 0 188 144" fill="none" xmlns="http://www.w3.org/2000/svg">
<path d="M112.999 35.255V80.2522C132.018 89.3947 146.984 80.2407 146.984 56.0899C146.984 31.3133 138.222 20.3155 112.387 11.4821C102.231 8.07024 81.0056 2.4 67.6678 0V134.353L100.868 144V31.3171C100.868 26.0357 103.234 22.5096 107.048 23.7274C112.027 25.1088 112.999 29.9698 112.999 35.255H112.999ZM173.594 94.4055C160.826 89.5819 144.557 87.9254 131.275 89.387C117.987 90.8525 108.543 94.1799 108.543 94.1799L106.658 94.8135V113.076L139.348 101.605C144.924 99.6135 153.105 99.1863 157.624 100.663C162.143 102.14 161.293 104.948 155.724 106.936L106.658 124.356V141.951L173.333 118.09C173.333 118.09 182.295 114.812 185.956 110.214C189.61 105.612 187.986 98.9381 173.594 94.4055ZM3.89118 104.761C-2.8413 109.737 -0.184983 117.729 14.3926 122.517C30.2398 127.721 45.4371 130.888 59.9086 128.34C60.8475 128.173 61.8752 127.996 62.792 127.822V111.458L49.3424 115.434C43.7744 117.43 35.5861 117.846 31.0669 116.373C26.5481 114.896 27.3987 112.088 32.9672 110.1L62.792 99.9542V81.6658L20.7041 96.7056C20.7041 96.7056 10.1182 100.163 3.89118 104.761V104.761Z" fill="white"/>
</svg>
